<?xml version="1.0" encoding="utf-8"?>
<!-- Generator: Adobe Illustrator 28.1.0, SVG Export Plug-In . SVG Version: 6.00 Build 0)  -->
<svg version="1.1" id="Layer_1" xmlns="http://www.w3.org/2000/svg" xmlns:xlink="http://www.w3.org/1999/xlink" x="0px" y="0px"
	 viewBox="0 0 405 65" style="enable-background:new 0 0 405 65;" xml:space="preserve">
<style type="text/css">
	.st0{fill:#71BF44;}
	.st1{fill:#FFFFFF;}
</style>
<g id="Group_1028" transform="translate(-1976.667 -73.907)">
	<g id="Group_1026" transform="translate(1998.04 79.914)">
		<g id="Group_1017" transform="translate(62.955)">
			<path id="Path_621" class="st0" d="M51.24,44.68c-2.63,3.03-6.43,4.8-10.44,4.84c-7.6,0.05-13.8-6.07-13.85-13.67
				c0-0.06,0-0.12,0-0.18c0.04-7.61,6.24-13.74,13.85-13.7c0,0,0,0,0,0c6.12-0.04,11.51,4.02,13.17,9.91H36.34
				c-0.98-0.05-1.94,0.3-2.65,0.98c-0.62,0.68-0.95,1.58-0.91,2.5c-0.01,0.87,0.32,1.71,0.91,2.35c0.72,0.66,1.68,0.99,2.65,0.91
				h21.41c0.92,0.04,1.82-0.29,2.5-0.91c0.58-0.53,0.96-1.26,1.06-2.04c-0.06-11.34-9.24-20.52-20.58-20.58
				c-11.36,0.01-20.57,9.22-20.58,20.58C20.1,47,29.25,56.22,40.57,56.26c0.05,0,0.1,0,0.15,0c5.85,0,11.41-2.51,15.28-6.89
				c1.74-1.81,0.83-3.71,0-4.84c-1.21-1.21-3.86-1.29-4.84,0.15H51.24z M75.68,53.39c0.68,2.04,1.29,2.88,3.4,2.88
				c2.12,0,2.72-0.83,3.4-2.88l11.58-32.46c0.43-0.84,0.66-1.78,0.68-2.72c0.1-1.61-1.11-2.99-2.72-3.1c-0.1-0.01-0.2-0.01-0.3,0
				c-1.65-0.16-3.15,0.95-3.48,2.57l-9.16,27.84h-0.15l-9.15-27.84c-0.33-1.62-1.83-2.73-3.48-2.57c-1.61-0.06-2.97,1.19-3.03,2.8
				c0,0.1,0,0.21,0,0.31c0.02,0.95,0.25,1.88,0.68,2.72L75.68,53.39z M127.36,44.69c-2.63,3.03-6.43,4.8-10.44,4.84
				c-7.6,0.05-13.8-6.07-13.85-13.67c0-0.06,0-0.12,0-0.18c0.04-7.61,6.24-13.74,13.85-13.7c0,0,0,0,0,0
				c6.12-0.04,11.51,4.02,13.17,9.91h-17.63c-0.98-0.05-1.94,0.3-2.65,0.98c-0.62,0.68-0.95,1.58-0.91,2.5
				c-0.01,0.87,0.31,1.71,0.91,2.35c0.72,0.66,1.68,0.98,2.65,0.91h21.41c0.92,0.04,1.82-0.29,2.5-0.91
				c0.58-0.53,0.96-1.26,1.06-2.04c-0.07-11.34-9.24-20.52-20.58-20.58c-11.36,0.01-20.57,9.22-20.58,20.58
				c-0.04,11.32,9.11,20.54,20.43,20.58c0.05,0,0.1,0,0.15,0c5.85,0,11.41-2.51,15.28-6.89c1.74-1.81,0.83-3.71,0-4.84
				c-1.21-1.21-3.86-1.29-4.84,0.15L127.36,44.69z M143.54,52.71c-0.12,1.84,1.27,3.43,3.11,3.55c1.84,0.12,3.43-1.27,3.55-3.11
				c0.01-0.15,0.01-0.29,0-0.44V30.76c-0.17-2.87,0.93-5.67,3.03-7.64c1.76-1.48,3.99-2.28,6.28-2.27c2.29,0,4.52,0.81,6.28,2.27
				c2.04,2,3.11,4.79,2.95,7.64V52.7c-0.12,1.84,1.27,3.43,3.11,3.55c1.84,0.12,3.43-1.27,3.55-3.11c0.01-0.15,0.01-0.29,0-0.44
				V30.38c0-5.68-1.97-9.46-4.69-11.88c-2.58-2.24-5.89-3.45-9.3-3.41c-4.37-0.14-8.53,1.84-11.2,5.3l-0.15-0.15v-1.59
				c0.2-1.76-1.07-3.34-2.83-3.54c-0.17-0.02-0.33-0.02-0.5-0.02c-1.77-0.08-3.27,1.29-3.35,3.05c-0.01,0.17,0,0.34,0.02,0.5
				L143.54,52.71z M186.37,15.55h-2.72c-2.2,0-3.33,0.98-3.33,2.88c0,1.89,1.13,2.88,3.33,2.88h2.72v31.4
				c-0.13,1.84,1.26,3.43,3.1,3.56c1.84,0.13,3.43-1.26,3.56-3.1c0.01-0.15,0.01-0.31,0-0.46V21.3h2.72c2.2,0,3.33-0.98,3.33-2.88
				c0-1.89-1.13-2.88-3.33-2.88h-2.72v-8.7c0.2-1.76-1.07-3.34-2.83-3.54c-0.17-0.02-0.34-0.02-0.5-0.02
				c-1.77-0.08-3.26,1.29-3.34,3.05c-0.01,0.17,0,0.34,0.02,0.5V15.55z"/>
		</g>
		<g id="Group_1024" transform="translate(0 8.152)">
			<path id="Path_628" class="st0" d="M68.92,26.77c0-1.71-1.38-3.09-3.09-3.09c0,0,0,0,0,0H44.76C43.22,12.95,34.03,4.99,23.2,4.99
				c-5.71-0.01-11.19,2.24-15.26,6.25c-1.2,1.2-1.2,3.15,0,4.36c1.2,1.2,3.15,1.2,4.35,0l0,0c2.92-2.84,6.83-4.43,10.9-4.41
				c8.61,0,15.58,6.98,15.58,15.58c0,0,0,0,0,0c0,8.61-6.98,15.58-15.58,15.58c0,0,0,0,0,0c-4.05,0-7.95-1.58-10.86-4.4
				c-1.21-1.21-3.17-1.21-4.39,0c-1.2,1.2-1.21,3.15,0,4.36c0,0,0.01,0.01,0.01,0.01c4.07,3.99,9.54,6.22,15.24,6.22
				c10.83,0,20.01-7.96,21.55-18.68h21.07C67.54,29.86,68.92,28.47,68.92,26.77L68.92,26.77"/>
		</g>
	</g>
	<g id="Group_1027" transform="translate(1976.667 73.907)">
		<g id="Group_1018" transform="translate(295.588 1.246)">
			<path id="Path_622" class="st1" d="M94.28,58.37c0.03-1.3-0.56-2.54-1.59-3.33L75.14,37.72l15.13-11.96
				c1-0.58,1.63-1.64,1.66-2.8c0.14-1.49-0.96-2.8-2.44-2.94C89.37,20,89.26,20,89.14,20.01c-1.47,0.24-2.83,0.96-3.86,2.04
				L70.75,34.24V5.86c0.2-1.76-1.07-3.34-2.83-3.54c-0.17-0.02-0.33-0.02-0.5-0.02c-1.77-0.08-3.27,1.29-3.35,3.05
				c-0.01,0.17,0,0.34,0.02,0.5l0.15,51.61c-0.19,1.76,1.08,3.34,2.84,3.54c0.16,0.02,0.33,0.02,0.49,0.02
				c1.77,0.08,3.27-1.29,3.35-3.06c0.01-0.17,0-0.33-0.02-0.5V41.42l16.79,17.56c1.59,1.59,2.2,2.04,3.79,2.04
				C92.98,61.04,94.22,59.87,94.28,58.37"/>
		</g>
		<g id="Group_1019" transform="translate(261.891 15.777)">
			<path id="Path_623" class="st1" d="M89.09,42.93V20.61c0-5.68-1.97-9.46-4.69-11.88c-2.58-2.24-5.89-3.45-9.3-3.4
				c-4.37-0.14-8.53,1.84-11.2,5.3l-0.15-0.15V8.89c0.2-1.76-1.07-3.34-2.83-3.54c-0.17-0.02-0.33-0.02-0.5-0.02
				c-1.77-0.08-3.27,1.29-3.35,3.05c-0.01,0.17,0,0.34,0.02,0.5l0.15,34.05c-0.2,1.76,1.07,3.34,2.83,3.54
				c0.17,0.02,0.33,0.02,0.5,0.02c1.77,0.08,3.27-1.29,3.35-3.06c0.01-0.17,0-0.33-0.02-0.5V20.99c-0.18-2.87,0.93-5.67,3.03-7.64
				c1.76-1.48,3.99-2.28,6.28-2.27c2.29,0,4.52,0.81,6.28,2.27c2.04,2,3.11,4.79,2.95,7.64v21.94c-0.2,1.76,1.07,3.34,2.83,3.54
				c0.16,0.02,0.33,0.02,0.5,0.02c1.77,0.08,3.27-1.29,3.34-3.06C89.11,43.27,89.11,43.1,89.09,42.93"/>
		</g>
		<g id="Group_1020" transform="translate(248.613 4.503)">
			<path id="Path_624" class="st1" d="M62.49,7.07c0.06-2.2-1.67-4.02-3.87-4.09c-0.07,0-0.15,0-0.22,0
				c-2.2-0.06-4.03,1.67-4.09,3.86c0,0.07,0,0.15,0,0.22c-0.06,2.2,1.67,4.03,3.87,4.09c0.07,0,0.15,0,0.22,0
				c2.2,0.06,4.02-1.67,4.08-3.87C62.49,7.21,62.49,7.14,62.49,7.07"/>
		</g>
		<g id="Group_1021" transform="translate(236.463 1.121)">
			<path id="Path_625" class="st1" d="M58.45,57.59V5.84c0.2-1.76-1.07-3.34-2.83-3.54c-0.17-0.02-0.33-0.02-0.5-0.02
				c-1.77-0.08-3.27,1.29-3.35,3.05c-0.01,0.17,0,0.34,0.02,0.5v51.75c-0.2,1.76,1.07,3.34,2.83,3.54c0.17,0.02,0.33,0.02,0.5,0.02
				c1.77,0.08,3.27-1.29,3.35-3.05C58.47,57.92,58.47,57.76,58.45,57.59"/>
		</g>
		<g id="Group_1022" transform="translate(249.24 15.777)">
			<path id="Path_626" class="st1" d="M54.45,8.89v34.05c-0.2,1.76,1.07,3.34,2.83,3.54c0.17,0.02,0.33,0.02,0.5,0.02
				c1.77,0.08,3.27-1.29,3.35-3.05c0.01-0.17,0-0.34-0.02-0.5V8.89c0.2-1.76-1.07-3.34-2.83-3.54c-0.17-0.02-0.33-0.02-0.5-0.02
				c-1.77-0.08-3.27,1.29-3.35,3.05C54.43,8.55,54.43,8.72,54.45,8.89"/>
		</g>
		<g id="Group_1023" transform="translate(0 23.097)">
			<path id="Path_627" class="st1" d="M55.55,17.83c0-6.06-4.91-10.98-10.97-10.98c0,0,0,0,0,0c-4.87,0-9.16,3.21-10.53,7.88H5.69
				c-1.71,0-3.09,1.38-3.09,3.09c0,0,0,0,0,0c0,1.71,1.38,3.09,3.09,3.09c0,0,0,0,0,0h28.36c1.37,4.67,5.66,7.88,10.53,7.88
				C50.64,28.8,55.55,23.89,55.55,17.83C55.55,17.83,55.55,17.83,55.55,17.83"/>
		</g>
		<g id="Group_1025" transform="translate(321.084 0)">
			<path id="Path_629" class="st1" d="M79.75,12.4c1.14-1.14,1.78-2.68,1.77-4.29c0.01-1.61-0.63-3.15-1.77-4.29
				c-1.14-1.14-2.68-1.78-4.29-1.77c-1.61-0.01-3.16,0.63-4.29,1.77c-1.14,1.14-1.78,2.68-1.77,4.29c-0.01,1.61,0.63,3.16,1.77,4.29
				c1.14,1.14,2.68,1.78,4.29,1.77C77.07,14.17,78.61,13.54,79.75,12.4 M72.18,11.5c-0.89-0.9-1.39-2.11-1.39-3.37
				c0-1.26,0.5-2.47,1.39-3.37c0.86-0.89,2.05-1.4,3.29-1.41c1.24,0.01,2.43,0.51,3.29,1.41c0.89,0.9,1.39,2.11,1.39,3.37
				c0,1.26-0.5,2.47-1.39,3.37c-0.86,0.89-2.05,1.4-3.29,1.4C74.23,12.89,73.05,12.39,72.18,11.5 M75.15,8.71l1.59,2.55
				c0.13,0.24,0.39,0.39,0.67,0.36c0.28,0,0.62-0.1,0.62-0.28c-0.03-0.15-0.08-0.3-0.17-0.43l-1.48-2.27
				c0.97-0.02,1.74-0.82,1.73-1.79c0-0.05,0-0.1-0.01-0.15c0-1.52-0.85-1.99-2.54-1.99h-2.2c-0.25,0-0.38,0.1-0.38,0.35v5.99
				c-0.03,0.27,0.16,0.51,0.42,0.54c0.04,0.01,0.08,0,0.13,0c0.38,0,0.55-0.18,0.55-0.54V8.67L75.15,8.71z M74.07,7.67V5.72h1.37
				c0.34-0.02,0.69,0.03,1.02,0.13c0.32,0.12,0.52,0.43,0.5,0.77C77,6.98,76.8,7.33,76.47,7.49c-0.37,0.14-0.76,0.19-1.15,0.17
				L74.07,7.67z"/>
		</g>
	</g>
</g>
</svg>
